<svg width="379" height="54" viewBox="0 0 379 54" fill="none" xmlns="http://www.w3.org/2000/svg">
<g clip-path="url(#clip0_12429_232)">
<path d="M49.5003 10.6365C44.2405 9.75992 44.2405 9.75992 43.3639 4.50018C42.4873 9.75992 42.4873 9.75992 37.2275 10.6365C42.4873 11.5132 42.4873 11.5132 43.3639 16.7729C44.2405 11.5132 44.2405 11.5132 49.5003 10.6365Z" fill="#9A5BFF" stroke="#9A5BFF" stroke-width="3.06815" stroke-linecap="round" stroke-linejoin="round"/>
<path fill-rule="evenodd" clip-rule="evenodd" d="M20.5718 5.52301L29.0457 5.52301C30.1754 5.52301 31.0911 6.43879 31.0911 7.56847C31.0911 8.69814 30.1754 9.61392 29.0457 9.61392H20.6593C18.3344 9.61392 16.7138 9.61551 15.4521 9.7186C14.2142 9.81973 13.5031 10.0083 12.9644 10.2827C11.8097 10.8711 10.871 11.8098 10.2827 12.9644C10.0082 13.5031 9.81967 14.2143 9.71854 15.4521C9.61545 16.7139 9.61386 18.3345 9.61386 20.6594V33.3412C9.61386 35.6661 9.61545 37.2867 9.71854 38.5484C9.81967 39.7863 10.0082 40.4975 10.2827 41.0361C10.8445 42.1387 11.7258 43.0444 12.8094 43.6361C13.1104 41.5593 13.9319 39.6486 15.1367 38.0446C17.188 35.3137 20.3592 33.4623 23.9709 33.1756C24.472 26.8575 29.7579 21.8867 36.2048 21.8867C43.035 21.8867 48.4775 27.6388 48.4775 34.3639V34.4328C48.4775 36.1845 48.4775 37.5976 48.4029 38.7489C48.3261 39.9324 48.1644 40.9804 47.774 41.9778C46.7346 44.6336 44.6335 46.7346 41.9778 47.7741C40.9804 48.1644 39.9323 48.3262 38.7488 48.4029C37.5975 48.4776 36.1844 48.4776 34.4327 48.4776H20.5717C18.3549 48.4776 16.5669 48.4776 15.1189 48.3593C13.6281 48.2375 12.3186 47.9801 11.1071 47.3629C9.18275 46.3823 7.61818 44.8178 6.63766 42.8934C6.02036 41.6819 5.76302 40.3724 5.64121 38.8816C5.52291 37.4336 5.52293 35.6456 5.52295 33.4288V20.5718C5.52293 18.355 5.52291 16.5669 5.64121 15.119C5.76302 13.6282 6.02036 12.3187 6.63766 11.1072C7.61818 9.18281 9.18275 7.61824 11.1071 6.63772C12.3186 6.02042 13.6281 5.76308 15.1189 5.64128C16.5669 5.52297 18.3549 5.52299 20.5718 5.52301ZM28.0468 33.5299C29.615 33.9372 31.0623 34.6467 32.3208 35.5922C33.224 36.2708 33.406 37.553 32.7275 38.4562C32.0489 39.3594 30.7666 39.5415 29.8635 38.8629C28.4961 37.8355 26.7994 37.2276 24.9548 37.2276C22.2793 37.2276 19.9038 38.5096 18.4077 40.5015C17.5798 41.6037 17.0244 42.9197 16.8401 44.3547C17.8676 44.3859 19.1063 44.3867 20.6593 44.3867H34.3639C36.2006 44.3867 37.4808 44.3857 38.4841 44.3206C39.4702 44.2566 40.0462 44.137 40.4867 43.9646C42.0802 43.3409 43.3408 42.0802 43.9645 40.4868C44.1369 40.0463 44.2566 39.4703 44.3205 38.4842C44.3856 37.4809 44.3866 36.2006 44.3866 34.3639C44.3866 29.7923 40.6713 25.9776 36.2048 25.9776C31.8979 25.9776 28.3682 29.3054 28.0468 33.5299Z" fill="#1B133F"/>
<path d="M22.9093 19.8412C22.9093 21.5357 21.5356 22.9094 19.8411 22.9094C18.1466 22.9094 16.773 21.5357 16.773 19.8412C16.773 18.1467 18.1466 16.773 19.8411 16.773C21.5356 16.773 22.9093 18.1467 22.9093 19.8412Z" fill="#1B133F"/>
</g>
<path d="M97.328 38.5002L95.344 33.7642H84.4L82.416 38.5002H77.968L87.792 16.1002H92.24L101.936 38.5002H97.328ZM85.936 30.0842H93.808L89.904 20.6762L85.936 30.0842ZM104.658 14.7562H108.818V38.5002H104.658V14.7562ZM139.108 33.4442V27.3642H142.852V35.7802C140.548 37.5082 137.092 38.6922 133.988 38.6922C127.3 38.6922 122.148 33.7322 122.148 27.3002C122.148 20.8682 127.396 15.9722 134.244 15.9722C137.476 15.9722 140.772 17.2202 143.012 19.1722L140.58 22.3082C138.884 20.7402 136.516 19.7802 134.244 19.7802C129.924 19.7802 126.532 23.0762 126.532 27.3002C126.532 31.5562 129.956 34.8522 134.276 34.8522C135.812 34.8522 137.572 34.3082 139.108 33.4442ZM154.791 21.2522C160.807 21.2522 163.399 25.1882 162.983 31.3962H150.343C150.887 33.8282 152.743 35.3002 155.239 35.3002C156.999 35.3002 158.631 34.6282 159.847 33.3802L162.087 35.7162C160.391 37.5722 157.895 38.6602 154.887 38.6602C149.575 38.6602 146.087 35.1402 146.087 29.9882C146.087 24.7722 149.671 21.2522 154.791 21.2522ZM150.247 28.6122H159.207C159.111 26.0842 157.415 24.4842 154.823 24.4842C152.359 24.4842 150.631 26.0842 150.247 28.6122ZM176.896 21.2202C180.832 21.2202 183.232 23.7482 183.232 27.8122V38.5002H179.04V29.0282C179.04 26.6282 177.6 25.1562 175.232 25.1562C172.416 25.1882 170.752 27.2682 170.752 30.0842V38.5002H166.592V21.3802H170.752V24.5802C171.968 22.3082 174.112 21.2522 176.896 21.2202ZM195.041 21.2522C201.057 21.2522 203.649 25.1882 203.233 31.3962H190.593C191.137 33.8282 192.993 35.3002 195.489 35.3002C197.249 35.3002 198.881 34.6282 200.097 33.3802L202.337 35.7162C200.641 37.5722 198.145 38.6602 195.137 38.6602C189.825 38.6602 186.337 35.1402 186.337 29.9882C186.337 24.7722 189.921 21.2522 195.041 21.2522ZM190.497 28.6122H199.457C199.361 26.0842 197.665 24.4842 195.073 24.4842C192.609 24.4842 190.881 26.0842 190.497 28.6122ZM211.002 24.6762C212.154 22.4362 214.17 21.2522 216.826 21.2202V25.2522C213.21 25.0282 211.002 27.1402 211.002 30.2442V38.5002H206.842V21.3802H211.002V24.6762ZM233.363 38.5002H229.267V36.4202C228.083 37.9242 226.163 38.6922 223.731 38.6922C220.051 38.6922 217.747 36.4202 217.747 33.3802C217.747 30.2122 220.083 28.2602 224.243 28.2282H229.235V27.7802C229.235 25.7962 227.923 24.6122 225.363 24.6122C223.763 24.6122 222.035 25.1562 220.275 26.2122L218.771 23.3322C221.235 21.9562 223.155 21.2202 226.291 21.2202C230.771 21.2202 233.299 23.4922 233.331 27.3002L233.363 38.5002ZM224.723 35.4922C227.123 35.4922 229.011 34.2122 229.235 32.5482V31.0122H224.915C222.707 31.0122 221.683 31.6202 221.683 33.1242C221.683 34.5642 222.835 35.4922 224.723 35.4922ZM247.086 34.3082L248.046 37.4442C246.734 38.2442 245.262 38.6922 243.758 38.6922C240.974 38.6922 238.734 37.0922 238.734 33.5722V25.1242H236.334L236.302 22.0842H238.734V17.3802H242.862V22.0842H247.758V25.1242H242.862V32.8362C242.862 34.4682 243.534 35.0122 244.654 35.0122C245.358 35.0122 246.158 34.7562 247.086 34.3082ZM258.291 21.2522C264.307 21.2522 266.899 25.1882 266.483 31.3962H253.843C254.387 33.8282 256.243 35.3002 258.739 35.3002C260.499 35.3002 262.131 34.6282 263.347 33.3802L265.587 35.7162C263.891 37.5722 261.395 38.6602 258.387 38.6602C253.075 38.6602 249.587 35.1402 249.587 29.9882C249.587 24.7722 253.171 21.2522 258.291 21.2522ZM253.747 28.6122H262.707C262.611 26.0842 260.915 24.4842 258.323 24.4842C255.859 24.4842 254.131 26.0842 253.747 28.6122ZM279.846 16.1002H284.134V38.5002H279.846V16.1002ZM311.899 21.2202C315.771 21.2202 318.139 23.7482 318.139 27.8122V38.5002H313.947V29.0282C313.947 26.5962 312.507 25.1242 310.203 25.1242C307.515 25.2202 305.883 27.2682 305.883 30.0522V38.5002H301.691V29.0282C301.691 26.5962 300.283 25.1242 297.979 25.1242C295.259 25.2202 293.627 27.2682 293.627 30.0522V38.5002H289.467V21.3802H293.627V24.5482C294.811 22.2762 296.923 21.2522 299.643 21.2202C302.651 21.2202 304.731 22.7242 305.531 25.3162C306.651 22.5322 308.891 21.2522 311.899 21.2202ZM336.988 38.5002H332.892V36.4202C331.708 37.9242 329.788 38.6922 327.356 38.6922C323.676 38.6922 321.372 36.4202 321.372 33.3802C321.372 30.2122 323.708 28.2602 327.868 28.2282H332.86V27.7802C332.86 25.7962 331.548 24.6122 328.988 24.6122C327.388 24.6122 325.66 25.1562 323.9 26.2122L322.396 23.3322C324.86 21.9562 326.78 21.2202 329.916 21.2202C334.396 21.2202 336.924 23.4922 336.956 27.3002L336.988 38.5002ZM328.348 35.4922C330.748 35.4922 332.636 34.2122 332.86 32.5482V31.0122H328.54C326.332 31.0122 325.308 31.6202 325.308 33.1242C325.308 34.5642 326.46 35.4922 328.348 35.4922ZM353.143 21.3802H357.303V36.8682C357.303 41.7642 353.751 44.8682 348.343 44.8682C345.591 44.8682 343.127 43.9722 341.111 42.5962L342.775 39.5882C344.343 40.7402 346.071 41.3802 348.119 41.3802C351.191 41.3802 353.143 39.6842 353.143 36.9642V34.9482C351.991 36.6762 350.135 37.6362 347.703 37.6362C343.159 37.6362 340.087 34.3082 340.087 29.3802C340.087 24.5482 343.127 21.2522 347.575 21.2522C350.039 21.2202 351.959 22.2122 353.143 23.9402V21.3802ZM348.599 34.3722C351.287 34.3722 353.143 32.3562 353.143 29.4762C353.143 26.5962 351.287 24.5802 348.599 24.5802C345.911 24.5802 344.055 26.6282 344.023 29.4762C344.055 32.3562 345.879 34.3722 348.599 34.3722ZM369.322 21.2522C375.338 21.2522 377.93 25.1882 377.514 31.3962H364.874C365.418 33.8282 367.274 35.3002 369.77 35.3002C371.53 35.3002 373.162 34.6282 374.378 33.3802L376.618 35.7162C374.922 37.5722 372.426 38.6602 369.418 38.6602C364.106 38.6602 360.618 35.1402 360.618 29.9882C360.618 24.7722 364.202 21.2522 369.322 21.2522ZM364.778 28.6122H373.738C373.642 26.0842 371.946 24.4842 369.354 24.4842C366.89 24.4842 365.162 26.0842 364.778 28.6122Z" fill="#1B133F"/>
<defs>
<clipPath id="clip0_12429_232">
<rect width="49.0909" height="49.0909" fill="white" transform="translate(2.4541 2.45477)"/>
</clipPath>
</defs>
</svg>
